<svg id="Layer_1" data-name="Layer 1" xmlns="http://www.w3.org/2000/svg" viewBox="0 0 581.76 271.83"><defs><style>.cls-1{fill:#d1d3d4;}.cls-2{fill:#b4d88a;}.cls-11,.cls-12,.cls-17,.cls-2,.cls-5,.cls-6{stroke:#231f20;stroke-miterlimit:10;}.cls-11,.cls-2,.cls-5,.cls-6{stroke-width:0.25px;}.cls-3,.cls-4{font-size:12px;}.cls-10,.cls-16,.cls-18,.cls-3,.cls-4,.cls-8,.cls-9{fill:#231f20;}.cls-10,.cls-3,.cls-4{font-family:Arial-BoldMT, Arial;font-weight:700;}.cls-4{letter-spacing:-0.04em;}.cls-5{fill:#a7cee2;}.cls-6{fill:#2078b4;}.cls-7{opacity:0.3;}.cls-10,.cls-8,.cls-9{font-size:14px;}.cls-8{font-family:CourierNewPSMT, Courier New;}.cls-16,.cls-9{font-family:ArialMT, Arial;}.cls-11,.cls-12,.cls-17{fill:none;}.cls-13{letter-spacing:-0.06em;}.cls-14{fill:#55b948;}.cls-15{fill:#ed2225;}.cls-16{font-size:10px;}.cls-17{stroke-width:0.5px;}</style></defs><rect class="cls-1" x="8.43" y="81.62" width="131.91" height="18.67"/><rect class="cls-2" x="214.34" y="119.34" width="11.88" height="11.88"/><rect class="cls-2" x="226.26" y="119.34" width="11.88" height="11.88"/><rect class="cls-2" x="238.17" y="119.34" width="11.88" height="11.88"/><rect class="cls-2" x="262" y="119.34" width="11.88" height="11.88"/><rect class="cls-2" x="273.91" y="119.34" width="11.88" height="11.88"/><rect class="cls-2" x="285.83" y="119.34" width="11.88" height="11.88"/><rect class="cls-2" x="297.72" y="119.34" width="11.88" height="11.88"/><rect class="cls-2" x="309.63" y="119.34" width="11.88" height="11.88"/><rect class="cls-2" x="321.55" y="119.34" width="11.88" height="11.88"/><rect class="cls-2" x="333.46" y="119.34" width="11.88" height="11.88"/><rect class="cls-2" x="345.37" y="119.34" width="11.88" height="11.88"/><rect class="cls-2" x="357.29" y="119.34" width="11.88" height="11.88"/><rect class="cls-2" x="250.08" y="119.34" width="11.88" height="11.88"/><rect class="cls-2" x="369.2" y="119.34" width="11.88" height="11.88"/><text class="cls-3" transform="translate(252.36 129.17)">T</text><text class="cls-3" transform="translate(216.62 129.17)">T</text><text class="cls-3" transform="translate(227.53 129.17)">G</text><text class="cls-4" transform="translate(240 129.17)">A</text><text class="cls-3" transform="translate(263.6 129.17)">C</text><text class="cls-4" transform="translate(275.74 129.17)">A</text><text class="cls-4" transform="translate(287.65 129.17)">A</text><text class="cls-3" transform="translate(299.99 129.17)">T</text><text class="cls-3" transform="translate(310.9 129.17)">G</text><text class="cls-4" transform="translate(323.38 129.17)">A</text><text class="cls-3" transform="translate(335.73 129.17)">T</text><text class="cls-3" transform="translate(346.98 129.17)">C</text><text class="cls-4" transform="translate(359.12 129.17)">A</text><text class="cls-4" transform="translate(371.03 129.17)">A</text><rect class="cls-2" x="214.34" y="185.98" width="11.88" height="11.88"/><rect class="cls-2" x="226.26" y="185.98" width="11.88" height="11.88"/><rect class="cls-2" x="238.17" y="185.98" width="11.88" height="11.88"/><rect class="cls-2" x="262" y="185.98" width="11.88" height="11.88"/><rect class="cls-2" x="273.91" y="185.98" width="11.88" height="11.88"/><rect class="cls-2" x="285.83" y="185.98" width="11.88" height="11.88"/><rect class="cls-2" x="297.72" y="185.98" width="11.88" height="11.88"/><rect class="cls-2" x="309.63" y="185.98" width="11.88" height="11.88"/><rect class="cls-2" x="321.55" y="185.98" width="11.88" height="11.88"/><rect class="cls-2" x="333.46" y="185.98" width="11.88" height="11.88"/><rect class="cls-2" x="345.37" y="185.98" width="11.88" height="11.88"/><rect class="cls-2" x="357.29" y="185.98" width="11.88" height="11.88"/><rect class="cls-2" x="250.08" y="185.98" width="11.88" height="11.88"/><rect class="cls-2" x="369.2" y="185.98" width="11.88" height="11.88"/><text class="cls-3" transform="translate(252.36 195.81)">T</text><text class="cls-3" transform="translate(216.62 195.81)">T</text><text class="cls-3" transform="translate(227.53 195.81)">G</text><text class="cls-4" transform="translate(240 195.81)">A</text><text class="cls-3" transform="translate(263.6 195.81)">C</text><text class="cls-4" transform="translate(275.74 195.81)">A</text><text class="cls-4" transform="translate(287.65 195.81)">A</text><text class="cls-3" transform="translate(299.99 195.81)">T</text><text class="cls-3" transform="translate(310.9 195.81)">G</text><text class="cls-4" transform="translate(323.38 195.81)">A</text><text class="cls-3" transform="translate(335.73 195.81)">T</text><text class="cls-3" transform="translate(346.98 195.81)">C</text><text class="cls-4" transform="translate(359.12 195.81)">A</text><text class="cls-4" transform="translate(371.03 195.81)">A</text><rect class="cls-5" x="333.86" y="200.52" width="11.88" height="11.88"/><rect class="cls-5" x="345.77" y="200.52" width="11.88" height="11.88"/><rect class="cls-5" x="357.69" y="200.52" width="11.88" height="11.88"/><rect class="cls-5" x="369.6" y="200.52" width="11.88" height="11.88"/><rect class="cls-5" x="381.52" y="200.52" width="11.88" height="11.88"/><rect class="cls-5" x="393.43" y="200.52" width="11.88" height="11.88"/><rect class="cls-5" x="405.34" y="200.52" width="11.88" height="11.88"/><text class="cls-3" transform="translate(336.13 210.35)">T</text><text class="cls-3" transform="translate(347.38 210.35)">C</text><text class="cls-4" transform="translate(359.52 210.35)">A</text><text class="cls-4" transform="translate(371.43 210.35)">A</text><text class="cls-3" transform="translate(383.79 210.35)">T</text><text class="cls-3" transform="translate(394.7 210.35)">G</text><text class="cls-4" transform="translate(407.17 210.35)">A</text><rect class="cls-5" x="250.06" y="133.57" width="11.88" height="11.88"/><rect class="cls-5" x="261.98" y="133.57" width="11.88" height="11.88"/><rect class="cls-5" x="273.89" y="133.57" width="11.88" height="11.88"/><rect class="cls-5" x="285.81" y="133.57" width="11.88" height="11.88"/><rect class="cls-5" x="297.72" y="133.57" width="11.88" height="11.88"/><rect class="cls-5" x="309.63" y="133.57" width="11.88" height="11.88"/><rect class="cls-5" x="321.55" y="133.57" width="11.88" height="11.88"/><text class="cls-3" transform="translate(252.34 143.4)">T</text><text class="cls-3" transform="translate(263.58 143.4)">C</text><text class="cls-4" transform="translate(275.72 143.4)">A</text><text class="cls-4" transform="translate(287.63 143.4)">A</text><text class="cls-3" transform="translate(299.99 143.4)">T</text><text class="cls-3" transform="translate(310.91 143.4)">G</text><text class="cls-4" transform="translate(323.38 143.4)">A</text><rect class="cls-6" x="166.67" y="200.73" width="11.88" height="11.88"/><rect class="cls-6" x="178.59" y="200.73" width="11.88" height="11.88"/><rect class="cls-6" x="190.5" y="200.73" width="11.88" height="11.88"/><rect class="cls-6" x="202.41" y="200.73" width="11.88" height="11.88"/><rect class="cls-6" x="214.33" y="200.73" width="11.88" height="11.88"/><rect class="cls-6" x="226.24" y="200.73" width="11.88" height="11.88"/><rect class="cls-6" x="238.16" y="200.73" width="11.88" height="11.88"/><text class="cls-3" transform="translate(168.28 210.55)">C</text><text class="cls-4" transform="translate(180.42 210.55)">A</text><text class="cls-4" transform="translate(192.33 210.55)">A</text><text class="cls-3" transform="translate(204.69 210.55)">T</text><text class="cls-3" transform="translate(216.6 210.55)">T</text><text class="cls-3" transform="translate(227.51 210.55)">G</text><text class="cls-4" transform="translate(239.98 210.55)">A</text><g class="cls-7"><rect class="cls-5" x="333.86" y="223.54" width="11.88" height="11.88"/><rect class="cls-5" x="345.77" y="223.54" width="11.88" height="11.88"/><rect class="cls-5" x="357.69" y="223.54" width="11.88" height="11.88"/><rect class="cls-5" x="369.6" y="223.54" width="11.88" height="11.88"/><line class="cls-5" x1="381.52" y1="235.42" x2="381.52" y2="223.54"/></g><text class="cls-3" transform="translate(336.13 233.37)">T</text><text class="cls-3" transform="translate(347.38 233.37)">C</text><text class="cls-4" transform="translate(359.52 233.37)">A</text><text class="cls-4" transform="translate(371.43 233.37)">A</text><g class="cls-7"><line class="cls-6" x1="214.29" y1="223.75" x2="214.29" y2="235.63"/><rect class="cls-6" x="214.33" y="223.75" width="11.88" height="11.88"/><rect class="cls-6" x="226.24" y="223.75" width="11.88" height="11.88"/><rect class="cls-6" x="238.16" y="223.75" width="11.88" height="11.88"/></g><text class="cls-3" transform="translate(216.6 233.58)">T</text><text class="cls-3" transform="translate(227.51 233.58)">G</text><text class="cls-4" transform="translate(239.98 233.58)">A</text><text class="cls-8" transform="translate(10.74 93.54) scale(1.02 1)">--map_mode=deep</text><rect class="cls-1" x="439.45" y="81.62" width="131.91" height="18.67"/><text class="cls-8" transform="translate(441.76 93.54) scale(1.02 1)">--map_mode=wide</text><text class="cls-9" transform="translate(247.33 18.7)">Input Data</text><rect class="cls-2" x="219.3" y="34.32" width="11.88" height="11.88"/><rect class="cls-2" x="231.22" y="34.32" width="11.88" height="11.88"/><rect class="cls-2" x="243.13" y="34.32" width="11.88" height="11.88"/><rect class="cls-2" x="266.96" y="34.32" width="11.88" height="11.88"/><rect class="cls-2" x="278.87" y="34.32" width="11.88" height="11.88"/><rect class="cls-2" x="290.78" y="34.32" width="11.88" height="11.88"/><rect class="cls-2" x="302.68" y="34.32" width="11.88" height="11.88"/><rect class="cls-2" x="314.59" y="34.32" width="11.88" height="11.88"/><rect class="cls-2" x="326.51" y="34.32" width="11.88" height="11.88"/><rect class="cls-2" x="338.42" y="34.32" width="11.88" height="11.88"/><rect class="cls-2" x="350.33" y="34.32" width="11.88" height="11.88"/><rect class="cls-2" x="362.25" y="34.32" width="11.88" height="11.88"/><rect class="cls-2" x="255.04" y="34.32" width="11.88" height="11.88"/><rect class="cls-2" x="374.16" y="34.32" width="11.88" height="11.88"/><text class="cls-3" transform="translate(257.32 44.15)">T</text><text class="cls-3" transform="translate(221.58 44.15)">T</text><text class="cls-3" transform="translate(232.49 44.15)">G</text><text class="cls-4" transform="translate(244.96 44.15)">A</text><text class="cls-3" transform="translate(268.56 44.15)">C</text><text class="cls-4" transform="translate(280.7 44.15)">A</text><text class="cls-4" transform="translate(292.61 44.15)">A</text><text class="cls-3" transform="translate(304.95 44.15)">T</text><text class="cls-3" transform="translate(315.86 44.15)">G</text><text class="cls-4" transform="translate(328.33 44.15)">A</text><text class="cls-3" transform="translate(340.69 44.15)">T</text><text class="cls-3" transform="translate(351.94 44.15)">C</text><text class="cls-4" transform="translate(364.08 44.15)">A</text><text class="cls-4" transform="translate(375.99 44.15)">A</text><rect class="cls-5" x="216" y="55.61" width="11.88" height="11.88"/><rect class="cls-5" x="227.91" y="55.61" width="11.88" height="11.88"/><rect class="cls-5" x="239.83" y="55.61" width="11.88" height="11.88"/><rect class="cls-5" x="251.74" y="55.61" width="11.88" height="11.88"/><rect class="cls-5" x="263.66" y="55.61" width="11.88" height="11.88"/><rect class="cls-5" x="275.57" y="55.61" width="11.88" height="11.88"/><rect class="cls-5" x="287.48" y="55.61" width="11.88" height="11.88"/><text class="cls-3" transform="translate(218.27 65.44)">T</text><text class="cls-3" transform="translate(229.52 65.44)">C</text><text class="cls-4" transform="translate(241.66 65.44)">A</text><text class="cls-4" transform="translate(253.57 65.44)">A</text><text class="cls-3" transform="translate(265.93 65.44)">T</text><text class="cls-3" transform="translate(276.84 65.44)">G</text><text class="cls-4" transform="translate(289.31 65.44)">A</text><rect class="cls-6" x="307.74" y="55.61" width="11.88" height="11.88"/><rect class="cls-6" x="319.65" y="55.61" width="11.88" height="11.88"/><rect class="cls-6" x="331.56" y="55.61" width="11.88" height="11.88"/><rect class="cls-6" x="343.48" y="55.61" width="11.88" height="11.88"/><rect class="cls-6" x="355.39" y="55.61" width="11.88" height="11.88"/><rect class="cls-6" x="367.3" y="55.61" width="11.88" height="11.88"/><rect class="cls-6" x="379.22" y="55.61" width="11.88" height="11.88"/><text class="cls-3" transform="translate(309.34 65.44)">C</text><text class="cls-4" transform="translate(321.48 65.44)">A</text><text class="cls-4" transform="translate(333.39 65.44)">A</text><text class="cls-3" transform="translate(345.75 65.44)">T</text><text class="cls-3" transform="translate(357.66 65.44)">T</text><text class="cls-3" transform="translate(368.58 65.44)">G</text><text class="cls-4" transform="translate(381.05 65.44)">A</text><text class="cls-10" transform="translate(161.99 44.52)">Query</text><text class="cls-10" transform="translate(160.43 67.22)">Reads</text><rect class="cls-11" x="208.49" y="53.79" width="190.33" height="16.54" rx="8.27"/><polyline class="cls-12" points="168.87 28.91 168.87 25.29 390.39 25.29 390.39 28.91"/><text class="cls-9" transform="translate(221.04 91.84)">Example<tspan class="cls-13" x="54.47" y="0"> </tspan><tspan x="57.59" y="0">Alignments</tspan></text><polyline class="cls-12" points="169.93 102.05 169.93 98.43 391.45 98.43 391.45 102.05"/><path class="cls-14" d="M92.19,113.23a.09.09,0,0,0,.09,0,1.26,1.26,0,0,0,.26-.13c1-.71.72-.69,1.53.29a2.12,2.12,0,0,1,.12.2c.6.87.6.87-.1,1.58l-.5.46c-.11.2-.36.29-.42.54a7,7,0,0,1-1,1c-1,1.06-2.06,2.09-3,3.24a6.31,6.31,0,0,0-.54.62c-.56.59-1,1.29-1.54,1.9-.29.32-.5.69-.78,1l-.1.14a5.42,5.42,0,0,0-.56.77,6.28,6.28,0,0,0-.38.52,12.82,12.82,0,0,0-1,1.43,21.72,21.72,0,0,0-1.4,2.13,3.94,3.94,0,0,0-.38.53c-.2.43-.5.8-.72,1.22-.65,1.27-1.41,2.49-2,3.78-.09.17-.18.35-.26.52s-.29.58-.44.87l-.07.14a3.27,3.27,0,0,0-.24.5c-.14.36-.33.71-.47,1.07-.55,1.17-1,2.4-1.47,3.6a2,2,0,0,1-.09.35c-.43,1-.74,2-1.07,3s-.47,1.87-.85,2.76a15.13,15.13,0,0,1-.86,1.38,2.9,2.9,0,0,1-2.55,1.2h-.72a2.45,2.45,0,0,1-1.29-.55c-.17-.16-.35-.3-.52-.45a8.18,8.18,0,0,1-1.46-2c-.08-.18-.17-.36-.26-.53-.33-.73-.73-1.42-1.09-2.13-.58-1.19-1.28-2.31-1.9-3.47a17.91,17.91,0,0,0-1.06-1.79.61.61,0,0,1-.07-.14,1.47,1.47,0,0,0-.22-.41,4.72,4.72,0,0,0-.37-.61c-.42-.64-.82-1.28-1.3-1.89-.13-.2-.26-.41-.38-.62a6.27,6.27,0,0,1-.85-1.37,6.37,6.37,0,0,0-1.12-1.31c-.24-.27-.25-.51.12-.64.55-.2,1-.52,1.56-.76a1.09,1.09,0,0,1,1.32.19,4.09,4.09,0,0,0,.61.49c.28.24.55.5.82.75.67.58,1.3,1.2,1.92,1.83s1.21,1.26,1.78,1.91a1.56,1.56,0,0,1,.16.2c.51.63,1.06,1.23,1.54,1.89a4.49,4.49,0,0,0,.38.51c.21.31.37.64.59.94a3.51,3.51,0,0,0,.27.4,1.52,1.52,0,0,0,.3.38c.18-.08.16-.29.25-.42.32-.62.58-1.27.92-1.87a6.07,6.07,0,0,0,.48-.91l.08-.13c.09-.16.16-.33.24-.49a8.49,8.49,0,0,0,.58-1.07c1-1.74,2-3.49,3.12-5.15.26-.36.51-.73.74-1.11.55-.95,1.32-1.73,1.9-2.66s1.56-2,2.31-3a4.76,4.76,0,0,0,.72-.89c.49-.55,1-1.08,1.46-1.65s.91-.87,1.29-1.38a10.22,10.22,0,0,1,.9-1c.46-.43.87-.91,1.36-1.32s1-1.05,1.65-1.47c.41-.37.87-.67,1.25-1.06A23.65,23.65,0,0,1,92.19,113.23Z"/><path class="cls-14" d="M529.92,113.23a.08.08,0,0,0,.08,0,1.05,1.05,0,0,0,.26-.13c1-.71.73-.69,1.54.29a2,2,0,0,1,.11.2c.6.87.6.87-.1,1.58l-.5.46c-.11.2-.36.29-.42.54a7,7,0,0,1-1,1c-1,1.06-2,2.09-3,3.24a8,8,0,0,0-.54.62c-.56.59-1,1.29-1.53,1.9-.29.32-.51.69-.79,1l-.09.14a4.74,4.74,0,0,0-.56.77,6.28,6.28,0,0,0-.38.52,11.59,11.59,0,0,0-1,1.43,23.79,23.79,0,0,0-1.41,2.13,5.08,5.08,0,0,0-.38.53c-.19.43-.49.8-.71,1.22-.66,1.27-1.41,2.49-2,3.78-.1.17-.18.35-.27.52s-.29.58-.43.87a1,1,0,0,1-.08.14,3.22,3.22,0,0,0-.23.5c-.15.36-.33.71-.47,1.07-.56,1.17-1,2.4-1.47,3.6a2,2,0,0,1-.1.35c-.42,1-.74,2-1.06,3s-.48,1.87-.86,2.76a13.12,13.12,0,0,1-.85,1.38,2.91,2.91,0,0,1-2.55,1.2h-.73a2.49,2.49,0,0,1-1.29-.55c-.16-.16-.34-.3-.52-.45a8.72,8.72,0,0,1-1.46-2,5.2,5.2,0,0,0-.26-.53c-.32-.73-.73-1.42-1.09-2.13-.58-1.19-1.27-2.31-1.9-3.47a17.91,17.91,0,0,0-1.06-1.79.61.61,0,0,1-.07-.14,1.76,1.76,0,0,0-.21-.41,3.87,3.87,0,0,0-.38-.61c-.42-.64-.82-1.28-1.29-1.89-.13-.2-.27-.41-.39-.62a6.67,6.67,0,0,1-.85-1.37,6.64,6.64,0,0,0-1.11-1.31c-.25-.27-.25-.51.11-.64.55-.2,1-.52,1.56-.76a1.09,1.09,0,0,1,1.32.19,4.09,4.09,0,0,0,.61.49c.29.24.55.5.83.75.66.58,1.29,1.2,1.91,1.83s1.21,1.26,1.79,1.91a1.49,1.49,0,0,1,.15.2c.51.63,1.06,1.23,1.54,1.89a6.13,6.13,0,0,0,.38.51c.21.31.38.64.59.94l.27.4a1.37,1.37,0,0,0,.31.38c.17-.08.15-.29.25-.42.31-.62.57-1.27.92-1.87a8.71,8.71,0,0,0,.48-.91.83.83,0,0,1,.07-.13c.09-.16.16-.33.24-.49a7.38,7.38,0,0,0,.58-1.07c1-1.74,2-3.49,3.12-5.15q.39-.54.75-1.11c.54-.95,1.32-1.73,1.9-2.66.73-1,1.56-2,2.31-3a4.71,4.71,0,0,0,.71-.89c.5-.55,1-1.08,1.47-1.65s.91-.87,1.28-1.38a10.22,10.22,0,0,1,.9-1c.46-.43.88-.91,1.36-1.32s1-1.05,1.66-1.47c.4-.37.86-.67,1.25-1.06A22,22,0,0,1,529.92,113.23Z"/><path class="cls-14" d="M529.92,181.9a.07.07,0,0,0,.08,0,1.57,1.57,0,0,0,.26-.12c1-.72.73-.69,1.54.28a1.39,1.39,0,0,1,.11.21c.6.86.6.86-.1,1.57l-.5.46c-.11.2-.36.29-.42.54a7,7,0,0,1-1,1c-1,1.06-2,2.1-3,3.24a8,8,0,0,0-.54.62c-.56.59-1,1.29-1.53,1.9-.29.32-.51.7-.79,1l-.09.13a45.13,45.13,0,0,1-.94,1.29,12.4,12.4,0,0,0-1,1.43,25.32,25.32,0,0,0-1.41,2.13,5.08,5.08,0,0,0-.38.53c-.19.43-.49.8-.71,1.22-.66,1.27-1.41,2.49-2,3.78-.1.17-.18.35-.27.52s-.29.58-.43.87a.64.64,0,0,1-.08.14,3.22,3.22,0,0,0-.23.5c-.15.36-.33.71-.47,1.07-.56,1.18-1,2.4-1.47,3.6a2,2,0,0,1-.1.35c-.42,1-.74,2-1.06,3s-.48,1.87-.86,2.76a12.16,12.16,0,0,1-.85,1.38,2.92,2.92,0,0,1-2.55,1.21c-.24,0-.49,0-.73,0a2.49,2.49,0,0,1-1.29-.55,5.49,5.49,0,0,0-.52-.44,9,9,0,0,1-1.46-2,5.2,5.2,0,0,0-.26-.53c-.32-.73-.73-1.42-1.09-2.13-.58-1.19-1.27-2.31-1.9-3.47a17.91,17.91,0,0,0-1.06-1.79.61.61,0,0,1-.07-.14,2,2,0,0,0-.21-.41,3.87,3.87,0,0,0-.38-.61c-.42-.63-.82-1.28-1.29-1.88-.13-.21-.27-.42-.39-.63a6.67,6.67,0,0,1-.85-1.37,6.64,6.64,0,0,0-1.11-1.31c-.25-.27-.25-.51.11-.64.55-.2,1-.52,1.56-.76a1.1,1.1,0,0,1,1.32.19,4.09,4.09,0,0,0,.61.49c.29.24.55.5.83.75.66.59,1.29,1.21,1.91,1.83s1.21,1.26,1.79,1.91a1.49,1.49,0,0,1,.15.2c.51.63,1.06,1.23,1.54,1.89a6.13,6.13,0,0,0,.38.51c.21.31.38.64.59.95l.27.39a1.37,1.37,0,0,0,.31.38c.17-.08.15-.29.25-.42.31-.62.57-1.27.92-1.87a9.67,9.67,0,0,0,.48-.9.61.61,0,0,1,.07-.14c.09-.16.16-.33.24-.49a7.38,7.38,0,0,0,.58-1.07c1-1.74,2-3.49,3.12-5.14.26-.37.51-.74.75-1.12.54-.95,1.32-1.73,1.9-2.65.73-1,1.56-2,2.31-3a4.71,4.71,0,0,0,.71-.89c.5-.55,1-1.07,1.47-1.65s.91-.87,1.28-1.37a10.34,10.34,0,0,1,.9-1c.46-.43.88-.91,1.36-1.32s1-1.05,1.66-1.46c.4-.37.86-.68,1.25-1.07A22,22,0,0,1,529.92,181.9Z"/><path class="cls-15" d="M99.78,190.91V192c.14.59-.25.83-.69,1.05-.28.14-.54.32-.81.48a6.27,6.27,0,0,1-1,.67l-.13.07a2.9,2.9,0,0,0-.29.19l-.06,0a.88.88,0,0,0-.21.12l-.06,0a1.16,1.16,0,0,0-.35.21l-.05,0-.22.11a1.4,1.4,0,0,0-.26.16c-.28.19-.58.36-.87.53l-.66.42a3.56,3.56,0,0,0-.58.37l-.78.47-.3.19-.06,0-.26.17-.48.31c-.71.44-1.42.89-2.11,1.37a3.17,3.17,0,0,0-.58.37c-.18.11-.35.23-.53.33s-.67.46-1,.68a1.7,1.7,0,0,0-.23.17c-.33.23-.67.44-1,.68-.16.1-.31.22-.47.33a4.19,4.19,0,0,0-.59.42l-.9.63-.18.12c-.14.12-.4.19-.41.37s.27.2.38.34a.18.18,0,0,0,.07.05l.06,0c.4.29.77.61,1.18.88a2.88,2.88,0,0,0,.34.27c.19.15.38.3.58.43.72.53,1.43,1.08,2.16,1.59a1.16,1.16,0,0,0,.25.2l.83.6a4.19,4.19,0,0,0,.59.42,3.54,3.54,0,0,0,.44.32c.75.53,1.49,1.08,2.25,1.59a1.22,1.22,0,0,1,.19.12c.33.2.61.46,1,.63s.93.59,1.41.86a.21.21,0,0,1,.11.32c-.06.13-.12.26-.17.39a6.76,6.76,0,0,1-.44.61c-.15.16-.33.3-.49.44a5.7,5.7,0,0,1-.61.39c-.63.29-1.27.58-1.89.89a1.73,1.73,0,0,0-.24.1c-.35.17-.35.17-.23.53a.31.31,0,0,1,0,.25,6.71,6.71,0,0,0-.71.47,5.69,5.69,0,0,1-1.59.66.75.75,0,0,1-.42,0c-.52-.18-1-.45-1.54-.62l-.17-.07a.49.49,0,0,0-.63,0c-.35.21-.67.47-1,.65l-.1.06a8.1,8.1,0,0,1-1.57.68l-.08,0a1.35,1.35,0,0,1-1-.17l-.57-.33c-.17-.11-.34-.21-.5-.33s-.39-.27-.59-.38c-.69-.51-1.4-1-2.07-1.52-.16-.1-.28-.24-.43-.34s-.35-.29-.53-.43-.51-.4-.74-.63-.24-.17-.34-.27c-.3-.25-.59-.51-.9-.75-.11-.11-.25-.21-.37-.32-.57-.5-1.17-1-1.77-1.41-.12-.1-.24-.15-.37,0-.29.21-.56.46-.85.69a.87.87,0,0,0-.23.16c-.33.24-.66.48-1,.74l-.32.23c-.26.19-.5.39-.75.58l-.64.46c-.14.11-.29.21-.42.33-.35.23-.66.49-1,.73-.06,0-.13.09-.19.15l-.06,0a.65.65,0,0,0-.18.15l-.09.06a5.06,5.06,0,0,0-.69.53q-.56.41-1.08.84l-.44.32c-.25.19-.49.39-.73.59s-.41.33-.62.49-.31.22-.45.35-.5.37-.74.58a1.24,1.24,0,0,0-.22.18l-.84.67a2.43,2.43,0,0,0-.25.2.1.1,0,0,1-.05,0,2.31,2.31,0,0,0-.24.2,1.47,1.47,0,0,1-.72.1,1.52,1.52,0,0,1-.6-.06.65.65,0,0,0-.26-.17.47.47,0,0,1-.23-.12,2.82,2.82,0,0,0-.54-.36l-.06,0-.21-.15a.24.24,0,0,1-.1-.36l.09-.22c.16-.34.13-.39-.26-.39a3.76,3.76,0,0,0-1.2.18l-.24.07c-.28,0-.54.18-.82,0s-.41-.21-.6-.34-.23-.2-.13-.37v-1.07a1.74,1.74,0,0,1,0-1.06v-1.06a1.78,1.78,0,0,1,0-1.07v-1.06a1.54,1.54,0,0,1,0-1.06,6.64,6.64,0,0,0,.9-.68,4.06,4.06,0,0,1,.51-.42c.18-.12.35-.27.54-.38.35-.23.71-.45,1.06-.69s.74-.47,1.1-.74c.09-.07.19-.11.28-.17.29-.19.58-.37.85-.57s.6-.38.89-.58c.09-.05.16-.12.24-.17.31-.17.59-.39.89-.58s.39-.25.58-.38.22-.16.34-.22c.44-.31.91-.59,1.35-.9.29-.21.6-.4.9-.59s.32-.26.5-.37,0-.15,0-.21-.29-.32-.46-.47-.26-.24-.38-.37c-.31-.33-.62-.67-.94-1l-.07-.09c-.27-.31-.57-.6-.84-.91l-.08-.08c-.32-.38-.66-.75-1-1.12-.56-.69-1.15-1.37-1.69-2.07a5.85,5.85,0,0,0-.38-.49l-.53-.69c-.15-.19-.27-.4-.43-.58s-.27-.41-.42-.6c-.41-.61-.84-1.2-1.23-1.82-.23-.4-.45-.8-.64-1.21a1,1,0,0,1-.07-.15c-.15-.34-.13-.4.16-.64a4.12,4.12,0,0,0,.41-.32c.26-.2.55-.37.8-.58s.49-.29.73-.45a2.43,2.43,0,0,0,.35-.2c.2-.07.34-.26.58-.21s.62.28.94.42c.11.06.22.14.33.21l.06,0a.57.57,0,0,0,.4.15.94.94,0,0,0,.76-.24.12.12,0,0,1,0-.05.69.69,0,0,0,.17-.3l0-.07c0-.19.15-.35.2-.54a.15.15,0,0,1,.06-.09,2,2,0,0,0,.2-.21l.35-.25a2.75,2.75,0,0,1,1.57-.26l.2.06a6.28,6.28,0,0,1,1,.49c.16.11.28.28.45.38s.48.48.75.69a2,2,0,0,0,.33.32c.29.2.49.49.78.69l.34.33c.54.44,1,.95,1.58,1.38s1,.93,1.58,1.39c.35.31.7.61,1.07.89l.27.23c.26.24.54.44.8.67s.35.3.53.43.38.33.59.48.39.32.58.48a.28.28,0,0,0,.38,0c.08,0,.16-.08.24-.14l.05,0a1.77,1.77,0,0,0,.22-.16,1.78,1.78,0,0,1,.3-.17,1.33,1.33,0,0,0,.3-.18l.06,0a1.37,1.37,0,0,0,.2-.13l.06,0a2,2,0,0,0,.39-.26c.15-.07.29-.18.43-.26s.52-.33.78-.49a2.39,2.39,0,0,0,.34-.21,9.23,9.23,0,0,0,.94-.59,4.92,4.92,0,0,0,.7-.41l.28-.17c.85-.5,1.69-1,2.53-1.53A3.64,3.64,0,0,0,85,192l.2-.11c.28-.14.54-.33.83-.47s.65-.41,1-.59l.19-.11c.79-.47,1.59-.91,2.38-1.37a4.45,4.45,0,0,0,.64-.37,1.55,1.55,0,0,0,.42-.23c.33-.16.65-.34,1-.53s.79-.4,1.17-.63.69-.38,1.05-.54.5-.24.75-.37a3.88,3.88,0,0,0,.46-.22.67.67,0,0,1,.44,0l.66.27a2.3,2.3,0,0,0,.52.26,1.48,1.48,0,0,0,.27.16l.07,0a8.57,8.57,0,0,1,1,.58c.34.27.35.26.07.61,0,.06-.2.07-.1.2l.06,0a1.09,1.09,0,0,0,.23.14,2.75,2.75,0,0,0,.3.14,2.23,2.23,0,0,1,.63.33c.13.1.27,0,.4,0s.28,0,.25.21,0,.31,0,.47Z"/><text class="cls-16" transform="translate(257.26 262.17)">Windowed Read</text><line class="cls-17" x1="330.35" y1="253.59" x2="343.77" y2="239.84"/><polygon class="cls-18" points="344.07 242.46 343.57 242.45 343.63 239.98 341.17 240.1 341.15 239.6 344.15 239.46 344.07 242.46"/><line class="cls-17" x1="257.18" y1="253.42" x2="243.44" y2="240"/><polygon class="cls-18" points="246.05 239.7 246.04 240.2 243.57 240.14 243.69 242.6 243.19 242.62 243.05 239.63 246.05 239.7"/></svg>